/* XPM */
static char *acbb81c1b8234dc1e87daefd8a171d4d[] = {
/* columns rows colors chars-per-pixel */
"64 64 107 2 ",
"   c #A7CF57",
".  c #AACF52",
"X  c #A6CE59",
"o  c #ACD055",
"O  c #AED15A",
"+  c #B0D25F",
"@  c #9CCB69",
"#  c #8FC87B",
"$  c #94CA76",
"%  c #98CB70",
"&  c #91C979",
"*  c #A2CD61",
"=  c #B2D363",
"-  c #B7D66B",
";  c #B8D66E",
":  c #BAD771",
">  c #BCD977",
",  c #BEDA7B",
"<  c #46BCBF",
"1  c #5CBFB1",
"2  c #61BFAD",
"3  c #7CC494",
"4  c #6CC1A3",
"5  c #0FB7CF",
"6  c #00B4DD",
"7  c #24B8CC",
"8  c #34BAC7",
"9  c #38BAC6",
"0  c #00AFEC",
"q  c #00B2E2",
"w  c #00B1EC",
"e  c #00B9EF",
"r  c #28BCEF",
"t  c #35BEF0",
"y  c #3CBFF0",
"u  c #43BBC0",
"i  c #41BEE6",
"p  c #41BFF0",
"a  c #43C0F0",
"s  c #4AC1F1",
"d  c #53C3F1",
"f  c #5BC4F1",
"g  c #79CCEE",
"h  c #64C6F2",
"j  c #68C8F2",
"k  c #72CAF2",
"l  c #78CCF1",
"z  c #8BC781",
"x  c #86C688",
"c  c #BEDC9C",
"v  c #BADBA3",
"b  c #B6DAAC",
"n  c #ABD8BF",
"m  c #B0D9B9",
"M  c #C3DC85",
"N  c #C6DE8B",
"B  c #C8DF8F",
"V  c #C2DD94",
"C  c #C9DF91",
"Z  c #C0DC99",
"A  c #CAE094",
"S  c #CEE29B",
"D  c #D0E39E",
"F  c #CFE3A0",
"G  c #D2E5A3",
"H  c #D6E7AC",
"J  c #D9E9B4",
"K  c #DDEBBC",
"L  c #9FD5D2",
"P  c #93D2DE",
"I  c #A6D6C1",
"U  c #A8D7C5",
"Y  c #A2D6CD",
"T  c #88CFE7",
"R  c #84CFEA",
"E  c #82CFF4",
"W  c #89D1F5",
"Q  c #94D5F6",
"!  c #B0DEE8",
"~  c #ABDDF8",
"^  c #B0DFF8",
"/  c #B5E1F8",
"(  c #DFECC0",
")  c #E1EDC3",
"_  c #E3EFCA",
"`  c #E6F1CE",
"'  c #E1EED2",
"]  c #E9F2D3",
"[  c #EDF4DB",
"{  c #C8E6E2",
"}  c #C2E6FA",
"|  c #CAE9FA",
" . c #DBEFF4",
".. c #D5EEFB",
"X. c #DAEFFC",
"o. c #DEF1FC",
"O. c #EEF6E3",
"+. c #F1F6E3",
"@. c #F3F8E7",
"#. c #F5F9EB",
"$. c #E3F3FD",
"%. c #ECF7FD",
"&. c #F7FAF0",
"*. c #F9FCF4",
"=. c #F5FBFE",
"-. c #FFFFFF",
";. c None",
/* pixels */
";.;.;.;.;.;.;.;.;.;.;.;.;.;.;.;.;.;.;.;.;.;.;.;.;.;.f h n M N N N M N n f f ;.;.;.;.;.;.;.;.;.;.;.;.;.;.;.;.;.;.;.;.;.;.;.;.;.;.",
";.;.;.;.;.;.;.;.;.;.;.;.;.;.;.;.;.;.;.;.;.;.f j j j j j v N N N N N N b j j j j h f ;.;.;.;.;.;.;.;.;.;.;.;.;.;.;.;.;.;.;.;.;.;.",
";.;.;.;.;.;.;.;.;.;.;.;.;.;.;.;.;.;.;.d j j j j j j j k N N N N N N N N k j j j j j j h f ;.;.;.;.;.;.;.;.;.;.;.;.;.;.;.;.;.;.;.",
";.;.;.;.;.;.;.;.;.;.;.;.;.;.;.;.;.f j j j j j j j j j R N N N N N N N N R j j j j j j j j j f ;.;.;.;.;.;.;.;.;.;.;.;.;.;.;.;.;.",
";.;.;.;.;.;.;.;.;.;.;.;.;.;.;.f j j j j j j j j j j j U N N N N N N N N U j j j j j j j j j j j ;.;.;.;.;.;.;.;.;.;.;.;.;.;.;.;.",
";.;.;.;.;.;.;.;.;.;.;.;.;.;.h j j j j j j j j j j j j c N N N N N N N N c j j j j j j j j j j j 0 0 ;.;.;.;.;.;.;.;.;.;.;.;.;.;.",
";.;.;.;.;.;.;.;.;.;.;.;.;.j j j j j j j j j j j j j g N N N N N N N N N N g j j j j j j j j j j 0 0 0 ;.;.;.;.;.;.;.;.;.;.;.;.;.",
";.;.;.;.;.;.;.;.;.;.;.f j j j j j j j j j j j j j j L N N N N N N N N N N Y j j j j j j j j j d 0 0 0 0 0 ;.;.;.;.;.;.;.;.;.;.;.",
";.;.;.;.;.;.;.;.;.;.f j j j j j j j j j j j j j j j v N N N N N N N N N N v j j j j j j j j j s 0 0 0 0 0 0 ;.;.;.;.;.;.;.;.;.;.",
";.;.;.;.;.;.;.;.;.h j j j j j j j j j j j j j j j g N N N N N N N N N N N N l j j j j j j j j t 0 0 0 0 0 0 0 ;.;.;.;.;.;.;.;.;.",
";.;.;.;.;.;.;.;.h j j j j j j j j j j j j j j j j Y N N N N N N N N N N N N L j j j j j j j j e 0 0 0 0 0 0 0 0 ;.;.;.;.;.;.;.;.",
";.;.;.;.;.;.;.f j j j j j j j j j j j j j j j j j Z N N ) @.` J C N N N N N V j j j j j j j j w 0 0 0 0 0 0 0 0 0 ;.;.;.;.;.;.;.",
";.;.;.;.;.;.;.j j j j j j j j j j j j j j j j j R N N N [ -.-.-.` N A K F N N R j j j j j j h 0 0 0 0 0 0 0 0 0 0 ;.;.;.;.;.;.;.",
";.;.;.;.;.;.j j j j j j j j j j j j j j j j j j m N N N -.-.-.-.J N H -.-.-.[ m j j j j j j p 0 0 0 0 0 0 0 0 0 0 0 ;.;.;.;.;.;.",
";.;.;.;.;.h j j j j j j j j j j j j j j j j j k N N N G -.-.-.-.C N _ -.-.-.+.N k j j j j j e 0 0 0 0 0 0 0 0 0 0 0 0 ;.;.;.;.;.",
";.;.;.;.f j j j j j j j j j j j j j j j j Q E L N N N K -.-.-.&.N N +.-.-.-.) N L j j j j j 0 0 0 0 0 0 0 0 0 0 0 0 0 ;.;.;.;.;.",
";.;.;.;.j j j j j j j j j j j j j j j j j =.-.*.[ ( G [ -.-.-.] N N -.-.-.-.H N V j j j j t 0 0 0 0 0 0 0 0 0 0 0 0 0 0 ;.;.;.;.",
";.;.;.f j j j j j j j j j j j j j j j j E -.-.-.-.-.-.-.-.-.-.K N G -.-.-.-.C N N P j j j w 0 0 0 0 0 0 0 0 0 0 0 0 0 0 0 ;.;.;.",
";.;.;.j j j j j j j j j j j j j j j j j ~ -.-.-.-.-.-.-.-.-.-.-.#.@.-.-.-.@.N N N c j j s 0 0 0 0 0 0 0 0 0 0 0 0 0 0 0 0 ;.;.;.",
";.;.f j j j j j j j j j j j j j j j j j Q  .#.-.-.-.-.-.-.-.-.-.-.-.-.-.-.&.K G N N P j e 0 0 0 0 0 0 0 0 0 0 0 0 0 0 0 0 ;.;.;.",
";.;.h j j j j j j j j j j j j j j j j j j c N D -.-.-.-.-.-.-.-.-.-.-.-.-.-.-.-.-.+.' W w 0 0 w 0 0 0 0 0 0 0 0 0 0 0 0 0 0 ;.;.",
";.;.j j j j j j j j j j j j j j j j j j P N N N O.-.-.-.-.-.-.-.-.-.-.-.-.-.-.-.-.-.-.-.-.o.^ k e 0 0 0 0 0 0 0 0 0 0 0 0 0 ;.;.",
";.f j j j j j j j j j j j j j j j j j j c N N N &.-.-.-.-.-.-.-._ K ] #.-.-.-.-.-.-.-.-.-.-.-.-.=.0 0 0 0 0 0 0 0 0 0 0 0 0 0 ;.",
";.j j j j j j j j j j j j j j j j j j L N N N A -.-.-.-.-.-.-.-.H N N N C J ] *.-.-.-.-.-.-.-.-.| 0 0 0 0 0 0 0 0 0 0 0 0 0 0 ;.",
";.j j j j j j j j j j j j j j j j j k V N N N J -.-.-.-.-.-.-.-.N N N N N N N N J *.-.-.-.-.-.-.Q 0 0 0 0 0 0 0 0 0 0 0 0 0 0 ;.",
";.j j j j j j j j j j j j j j j j j I N N N N ` -.-.-.-.-.-.-.@.N N N N N N N M O = &.-.-.-.-.-.d 0 0 0 0 0 0 0 0 0 0 0 0 0 0 ;.",
"f j j j j j j j j j j j j j j j j R N N N N N @.-.-.-.-.-.-.-.` N N N N H S M O . . A -.-.-.-.-.w 0 0 0 0 0 0 0 0 0 0 0 0 0 0 0 ",
"h j j j j j j j j j j j j j j j j v N N N N B -.-.-.-.-.-.-.-.J N N N N -.-.&.H . . O -.-.-.-.X.0 0 0 0 0 0 0 0 0 0 0 0 0 0 0 0 ",
"h j j j j j j j j j j j j j j j L N N N N N H -.-.-.-.-.-.-.-.A N N N H -.-.-.J . . . -.-.-.-.{ 0 0 0 0 0 0 0 0 0 0 0 0 0 0 0 0 ",
"h j j j j j j j j j j j j j j g N N N N N N ) -.-.-.-.-.-.-.&.N N N N [ -.-.-.M . . o -.-.-.-.N q 0 0 0 0 0 0 0 0 0 0 0 0 0 0 0 ",
"j j j j j j j j j j j j j j j v N N N N N N +.-.-.-.-.-.-.-.-.#.] ] @.-.-.-.-.+ . . - -.-.-.-.= & 0 0 0 0 0 0 0 0 0 0 0 0 0 0 0 ",
"j j j j j j j j j j j j j j Y N N N N N N N -.-.-.-.-.-.-.-.-.-.-.-.-.-.-.-.@.. . . , *.-.-.#.. . 2 0 0 0 0 0 0 0 0 0 0 0 0 0 0 ",
"e f j j j j j j j j j j j R N N N N N N N G -.-.-.-.-.-.-.-.-.-.-.-.-.-.-.-.) . . . . . : D S . . . 6 0 0 0 0 0 0 0 0 0 0 0 0 0 ",
"0 0 e d j j j j j j j j k V N N N N N N N K -.-.-.-.-.-.-.-.&.-.-.-.-.-.-.-.A . . . . . . . . . . . * 0 0 0 0 0 0 0 0 0 0 0 0 0 ",
"0 0 0 0 0 r f j j j j j b N N N N N N N N [ -.-.-.-.-.-.-.` . ; K -.-.-.-.-.; . . . . . . . . . . . . z 0 0 0 0 0 0 0 0 0 0 0 0 ",
"0 0 0 0 0 0 0 e e t d Y N N N N N N N N N #.-.-.-.-.-.-.-.G . . . J -.-.-.*.. . . . . . . . . . . . . . 2 0 0 0 0 0 0 0 0 0 0 0 ",
"0 0 0 0 0 0 0 0 w 0 7 . o o O O O o o o = -.-.-.-.-.-.-.-., . . . , -.-.-.` . . . . . . . . . . . . . . . 7 0 0 0 0 0 0 0 0 0 0 ",
"0 0 0 0 0 0 0 0 0 q . . . . . . . . . . N -.-.-.-.-.-.-.-.O . . . M -.-.-.G . . . . . . . . . . . . . . .   q w 0 0 0 0 0 0 0 0 ",
";.0 0 0 0 0 0 0 0 * . . . . . . . . . . K -.-.-.-.-.-.-.[ . . . . H -.-.-., . . . . . . . . . . . . . . . . * q 0 0 0 0 0 0 0 ;.",
";.0 0 0 0 0 0 0 @ . . . . . . = N = . + &.-.-.-.-.-.-.-.J . . . . > J ] *.O . . . . . . . . . . . . . . . . . @ 0 0 0 0 0 0 0 ;.",
";.0 0 0 0 0 w $ . . . . . . . D -.-.#.-.-.-.-.-.-.-.-.-.N . . . . . . . . . . . . . . . . . . . . . . . . . . . $ w 0 0 0 0 0 ;.",
";.0 0 0 0 0 # . . . . . . . . ) -.-.-.-.-.-.-.-.-.-.-.-.M . . . . . . . . . . . . . . . . . . . . . . . . . . . . & w 0 0 0 0 ;.",
";.;.0 0 0 z . . . . . . . . . #.-.-.-.-.-.-.-.-.-.-.-.-.+.N = . . . . . . . . . . . . . . . . . . . . . . . . . . . z 0 0 0 ;.;.",
";.;.0 w z . . . . . . . . . . D ) @.-.-.-.-.-.-.-.-.-.-.-.-.-.@.o . . . . . . . . . . . . . . . . . . . . . . . . . . z w 0 ;.;.",
";.;.;.& . . . . . . . . . . . . . . = N ) -.-.-.-.-.-.-.-.-.-.+.. . . . . . . . . . . . . . . . . . . . . . . . . . . . & ;.;.;.",
";.;.;.. . . . . . . . . . . . . . . . . N -.-.-.*.] *.-.-.-.-.K . . . . . . . . . . . . . . . . . . . . . . . . . . . . . ;.;.;.",
";.;.;.. . . . . . . . . . . . . . . . . K -.-.-.` . . &.-.-.-.C . . . . . . . . . X   . . . . . . . . . . . . . . . . . . ;.;.;.",
";.;.;.;.. . . . . . . . . . . . . . . X O.-.-.-.! 6 i -.-.-.-.e 0 0 0 q q q 6 5 u 4 3 $ X . . . . . . . . . . . . . . . ;.;.;.;.",
";.;.;.;.;.. . . . . . . . . $ 4 9 6 0 w -.-.-.-.a 0 l -.-.-.%.0 0 0 0 0 0 0 0 0 0 0 0 0 0 0 6 8 4 $ . . . . . . . . . ;.;.;.;.;.",
";.;.;.;.;.. . . . X x u q 0 0 0 0 0 0 d -.-.-.-.w 0 / -.-.-.} 0 0 0 0 0 0 0 0 0 0 0 0 0 0 0 0 0 0 0 0 q u x X . . . . ;.;.;.;.;.",
";.;.;.;.;.;.% 1 6 0 0 0 0 0 0 0 0 0 0 j $.-.-...0 w $.-.-.-.W 0 0 0 0 0 0 0 0 0 0 0 0 0 0 0 0 0 0 0 0 0 0 0 0 6 1 % ;.;.;.;.;.;.",
";.;.;.;.;.;.;.0 0 0 0 0 0 0 0 0 0 0 0 0 0 w h f 0 w -.-.-.-.t 0 0 0 0 0 0 0 0 0 0 0 0 0 0 0 0 0 0 0 0 0 0 0 0 0 0 ;.;.;.;.;.;.;.",
";.;.;.;.;.;.;.0 0 0 0 0 0 0 0 0 0 0 0 0 0 0 0 0 0 w p Q } $.w 0 0 0 0 0 0 0 0 0 0 0 0 0 0 0 0 0 0 0 0 0 0 0 0 0 0 ;.;.;.;.;.;.;.",
";.;.;.;.;.;.;.;.0 0 0 0 0 0 0 0 0 0 0 0 0 0 0 0 0 0 0 0 0 0 0 0 0 0 0 0 0 0 0 0 0 0 0 0 0 0 0 0 0 0 0 0 0 0 0 w ;.;.;.;.;.;.;.;.",
";.;.;.;.;.;.;.;.;.w 0 0 0 0 0 0 0 0 0 0 0 0 0 0 0 0 0 0 0 0 0 0 0 0 0 0 0 0 0 0 0 0 0 0 0 0 0 0 0 0 0 0 0 0 0 ;.;.;.;.;.;.;.;.;.",
";.;.;.;.;.;.;.;.;.;.0 0 0 0 0 0 0 0 0 0 0 0 0 0 0 0 0 0 0 0 0 0 0 0 0 0 0 0 0 0 0 0 0 0 0 0 0 0 0 0 0 0 0 0 ;.;.;.;.;.;.;.;.;.;.",
";.;.;.;.;.;.;.;.;.;.;.0 0 0 0 0 0 0 0 0 0 0 0 0 0 0 0 0 0 0 0 0 0 0 0 0 0 0 0 0 0 0 0 0 0 0 0 0 0 0 0 0 0 ;.;.;.;.;.;.;.;.;.;.;.",
";.;.;.;.;.;.;.;.;.;.;.;.;.0 0 0 0 0 0 0 0 0 0 0 0 0 0 0 0 0 0 0 0 0 0 0 0 0 0 0 0 0 0 0 0 0 0 0 0 0 0 ;.;.;.;.;.;.;.;.;.;.;.;.;.",
";.;.;.;.;.;.;.;.;.;.;.;.;.;.0 0 0 0 0 0 0 0 0 0 0 0 0 0 0 0 0 0 0 0 0 0 0 0 0 0 0 0 0 0 0 0 0 0 0 0 ;.;.;.;.;.;.;.;.;.;.;.;.;.;.",
";.;.;.;.;.;.;.;.;.;.;.;.;.;.;.;.0 0 0 0 0 0 0 0 0 0 0 0 0 0 0 0 0 0 0 0 0 0 0 0 0 0 0 0 0 0 0 0 ;.;.;.;.;.;.;.;.;.;.;.;.;.;.;.;.",
";.;.;.;.;.;.;.;.;.;.;.;.;.;.;.;.;.0 0 0 0 0 0 0 0 0 0 0 0 0 0 0 0 0 0 0 0 0 0 0 0 0 0 0 0 0 0 ;.;.;.;.;.;.;.;.;.;.;.;.;.;.;.;.;.",
";.;.;.;.;.;.;.;.;.;.;.;.;.;.;.;.;.;.;.0 0 0 0 0 0 0 0 0 0 0 0 0 0 0 0 0 0 0 0 0 0 0 0 0 0 ;.;.;.;.;.;.;.;.;.;.;.;.;.;.;.;.;.;.;.",
";.;.;.;.;.;.;.;.;.;.;.;.;.;.;.;.;.;.;.;.;.;.0 0 0 0 0 0 0 0 0 0 0 0 0 0 0 0 0 0 0 0 ;.;.;.;.;.;.;.;.;.;.;.;.;.;.;.;.;.;.;.;.;.;.",
";.;.;.;.;.;.;.;.;.;.;.;.;.;.;.;.;.;.;.;.;.;.;.;.;.;.0 0 0 0 0 0 0 0 0 0 0 0 ;.;.;.;.;.;.;.;.;.;.;.;.;.;.;.;.;.;.;.;.;.;.;.;.;.;."
};
