/* XPM */
static char *bd9813054f714e89aff9cfbcae819d4f[] = {
/* columns rows colors chars-per-pixel */
"16 16 88 1 ",
"  c #AACF52",
". c #AACF53",
"X c #A9CF54",
"o c #ABD055",
"O c #ADD15C",
"+ c #AFD15C",
"@ c #9ECC67",
"# c #8EC87E",
"$ c #90C97A",
"% c #B1D362",
"& c #BBD872",
"* c #54BDB6",
"= c #6FC2A0",
"- c #6EC2A2",
"; c #31B9C7",
": c #00AFEC",
"> c #00B2E4",
", c #00B1E9",
"< c #00B0EC",
"1 c #00B3ED",
"2 c #00B4ED",
"3 c #00B5EE",
"4 c #00B6EE",
"5 c #00B8EE",
"6 c #00B9EF",
"7 c #3CBFF0",
"8 c #43C0F0",
"9 c #5AC4F1",
"0 c #5CC5F2",
"q c #5EC5F2",
"w c #5FC5F2",
"e c #7FCDEC",
"r c #7FCDED",
"t c #61C6F2",
"y c #63C6F2",
"u c #65C7F2",
"i c #68C8F2",
"p c #73CAF1",
"a c #71CAF3",
"s c #8BC781",
"d c #84C689",
"f c #B8DBA9",
"g c #C1DB80",
"h c #C6DE8B",
"j c #C3DD8F",
"k c #C6DE8C",
"l c #C7DE8E",
"z c #C2DD91",
"x c #C4DF9D",
"c c #CBE196",
"v c #CFE39F",
"b c #C0DDA2",
"n c #CFE3A0",
"m c #D2E5A4",
"M c #D4E5A7",
"N c #DAE9B4",
"B c #DDEBBB",
"V c #97D3D9",
"C c #A3D6CC",
"Z c #90D2E1",
"A c #9BD7F6",
"S c #DFECC0",
"D c #E0EDC0",
"F c #E4EFC7",
"G c #E4F0D3",
"H c #E8F2D2",
"J c #ECF4DA",
"K c #ECF4DB",
"L c #C2E6FA",
"P c #CBE9FA",
"I c #DDF1FC",
"U c #E6F2E0",
"Y c #EFF5E0",
"T c #F2F7E7",
"R c #F3F8E7",
"E c #F3F8E8",
"W c #EEF8FA",
"Q c #F6FBF6",
"! c #F8FBF1",
"~ c #F8FBF2",
"^ c #FAFCF3",
"/ c #FAFCF6",
"( c #FBFDF9",
") c #FDFEF9",
"_ c #FDFEFC",
"` c #FFFFFE",
"' c gray100",
"] c None",
/* pixels */
"]]]]]9izziw]]]]]",
"]]]wiirhhriu<]]]",
"]]tiiiCvhCiw::]]",
"]wiiupx'SGi7:::]",
"]iiiiW/'EHZ2:::]",
"wiiiib''Y/(P6:::",
"tiiiVm')lmN'2:::",
"iiipjD'^FElE,:::",
"28tfhK'K~S.%#,,:",
"<<= +~'gBc...=::",
"<* &'''n......*:",
"] ..+/UQd$@....]",
"]s;><IAL::::>;s]",
"]]:<::26::::,,]]",
"]]]::::::::::]]]",
"]]]]]::::::]]]]]"
};
