/* XPM */
static char *a794299863fd4200f95e9f4ac4025f31[] = {
/* columns rows colors chars-per-pixel */
"32 32 165 2 ",
"   c #AACF52",
".  c #AACF53",
"X  c #A9CF54",
"o  c #A3CD5F",
"O  c #ABD054",
"+  c #ACD057",
"@  c #ADD158",
"#  c #AFD15B",
"$  c #B0D25C",
"%  c #9CCB69",
"&  c #8FC87B",
"*  c #96CA73",
"=  c #94CA74",
"-  c #B4D466",
";  c #B5D567",
":  c #B5D569",
">  c #B8D66E",
",  c #B9D770",
"<  c #BBD875",
"1  c #54BDB6",
"2  c #5BBEB1",
"3  c #5BBEB2",
"4  c #6FC29F",
"5  c #71C29F",
"6  c #72C29E",
"7  c #69C1A5",
"8  c #65C0AA",
"9  c #00B6D4",
"0  c #00B6D6",
"q  c #29B9CA",
"w  c #00AFEC",
"e  c #00B1E7",
"r  c #00B0EA",
"t  c #00B0EC",
"y  c #00B1ED",
"u  c #00B2ED",
"i  c #00B3ED",
"p  c #00B4ED",
"a  c #00B5EE",
"s  c #00B6EE",
"d  c #00B9EF",
"f  c #1FBBEF",
"g  c #28BCEF",
"h  c #33BDF0",
"j  c #3CBFF0",
"k  c #46C0F0",
"l  c #4CC1F1",
"z  c #4EC2F1",
"x  c #52C3F1",
"c  c #56C3F1",
"v  c #58C4F1",
"b  c #5AC4F1",
"n  c #5CC5F2",
"m  c #61C6F2",
"M  c #63C6F2",
"N  c #65C7F2",
"B  c #66C7F2",
"V  c #68C8F2",
"C  c #69C8F2",
"Z  c #6FC9F1",
"A  c #6EC9F2",
"S  c #72CAF1",
"D  c #70CAF2",
"F  c #77CBF0",
"G  c #76CBF3",
"H  c #7FCEF0",
"J  c #8AC783",
"K  c #84C689",
"L  c #BBDB9E",
"P  c #BBDB9F",
"I  c #BDDC9D",
"U  c #ACD8BE",
"Y  c #ADD8BE",
"T  c #ADD9BF",
"R  c #B2DAB5",
"E  c #C3DC84",
"W  c #C3DC86",
"Q  c #C6DE8A",
"!  c #C6DE8B",
"~  c #C3DD8F",
"^  c #C6DE8C",
"/  c #C4DD8E",
"(  c #C8DF8F",
")  c #C2DD93",
"_  c #C4DD90",
"`  c #C9DF91",
"'  c #C9E092",
"]  c #CAE093",
"[  c #CCE197",
"{  c #CFE3A0",
"}  c #D0E4A0",
"|  c #D0E4A1",
" . c #D2E5A3",
".. c #D4E6A8",
"X. c #D5E6A8",
"o. c #D4E6A9",
"O. c #D6E7AE",
"+. c #D7E7AF",
"@. c #D8E8B0",
"#. c #D9E8B2",
"$. c #DAE9B4",
"%. c #DAE9B5",
"&. c #DCEAB9",
"*. c #DDEBBA",
"=. c #DDEBBB",
"-. c #DDEBBC",
";. c #DEEBBD",
":. c #A6D7C7",
">. c #ACD9C0",
",. c #A3D6CA",
"<. c #A6D7C8",
"1. c #88CFE5",
"2. c #85CFE9",
"3. c #8CD1E3",
"4. c #8ED1E3",
"5. c #85D0F4",
"6. c #8BD2F5",
"7. c #9AD7F6",
"8. c #9CD8F6",
"9. c #B7E2F9",
"0. c #C3E1C2",
"q. c #CCE7DC",
"w. c #E0EDC1",
"e. c #E2EEC4",
"r. c #E2EEC6",
"t. c #E3EEC7",
"y. c #E3EFC9",
"u. c #E6F0CD",
"i. c #EAF3D5",
"p. c #EBF3D7",
"a. c #ECF4DA",
"s. c #E9F3DE",
"d. c #D5ECE9",
"f. c #C4E7FA",
"g. c #CEEAFA",
"h. c #D5EEFB",
"j. c #EFF6E0",
"k. c #F0F6E2",
"l. c #F0F6E3",
"z. c #F1F7E4",
"x. c #F2F7E6",
"c. c #F4F9E9",
"v. c #F4F9EA",
"b. c #F3F8ED",
"n. c #F5F9EC",
"m. c #F6F9EC",
"M. c #F7FAEE",
"N. c #F7FAEF",
"B. c #E7F4F0",
"V. c #F8FBF1",
"C. c #FBFCF6",
"Z. c #FBFDF6",
"A. c #FBFDF7",
"S. c #FCFDF9",
"D. c #FDFEF9",
"F. c #FDFEFB",
"G. c #FAFDFE",
"H. c #FBFDFF",
"J. c #FDFEFC",
"K. c #FEFEFC",
"L. c #FEFEFD",
"P. c #FEFEFE",
"I. c #FFFFFE",
"U. c gray100",
"Y. c None",
/* pixels */
"Y.Y.Y.Y.Y.Y.Y.Y.Y.Y.Y.Y.n m I Q / I m v Y.Y.Y.Y.Y.Y.Y.Y.Y.Y.Y.Y.",
"Y.Y.Y.Y.Y.Y.Y.Y.Y.v N V N S Q ( Q Q S V V N n Y.Y.Y.Y.Y.Y.Y.Y.Y.",
"Y.Y.Y.Y.Y.Y.Y.c V V V V V 4./ Q Q Q 4.V V V V V w Y.Y.Y.Y.Y.Y.Y.",
"Y.Y.Y.Y.Y.Y.m V V V V V V Y Q Q / / Y V V V V m w w Y.Y.Y.Y.Y.Y.",
"Y.Y.Y.Y.Y.N V V V V V V V / Q Q Q Q ~ V V V V c w w w Y.Y.Y.Y.Y.",
"Y.Y.Y.Y.N V V V V V V V 4./ %.o.' Q Q 4.V V V j w w w w Y.Y.Y.Y.",
"Y.Y.Y.m V V V V V V N N R Q A.U.X.e.u.0.V V V d w w w w w Y.Y.Y.",
"Y.Y.v V V V V V V V F 5.Q { U.U.( M.U.$.F V V y w w w w w w Y.Y.",
"Y.Y.V V V V V V V V f.U.v.l.U.c.' U.U.[ :.V k w w w w w w w Y.Y.",
"Y.n V V V V V V V V g.U.U.U.U.U.A.U.D.} / A y w w w w w w w w Y.",
"Y.N V V V V V V C C ,.( D.U.U.U.U.U.U.U.D.B.7.x y w w w w w w Y.",
"Y.V V V V V V V N S / ( U.U.U.U.$.&.p.A.U.U.U.U.6.y w w w w w Y.",
"v V V V V V V V V Y Q o.U.U.U.D.Q Q Q Q { U.U.U.j w w w w w w w ",
"m V V V V V V V 2.Q Q r.U.U.U.j.Q / p. .  r.U.G.y w w w w w w w ",
"N C N V V V V V I Q Q k.U.U.U.r.Q o.U.p.  O.U.s.w w w w w w w w ",
"C C V V V V V <.Q / Q D.U.U.U.U.m.D.U.O.  e.U.@.8 w w w w w w w ",
"a l V V B B 1.Q / Q { U.U.U.U.U.U.U.U.E     , -   0 w w w w w w ",
"y y y f l A ) Q Q Q ;.U.U.U.k.$ &.U.U.#           o r w w w w w ",
"w w w w y *   O O   r.U.U.U.;.  > U.k.              * y w w w w ",
"w w w w K     # - + m.U.U.U.`   < x.&.                K w w w w ",
"Y.w w 6       E U.U.U.U.U.U.,                           6 w w Y.",
"Y.w 6         ` V.U.U.U.U.U.k.O.O                         7 w Y.",
"Y.K               : a.U.C.U.U.c.                        O O K Y.",
"Y.Y.                b.U.>.q.U.d.1 3 7 6 J % X             O Y.Y.",
"Y.Y.    X & 3 0 e a U.U.a h.U.5.w w w w w w w e 9 2 &       Y.Y.",
"Y.Y.Y.q y w w w w a 8.9.y G.U.g w w w w w w w w w w w w q Y.Y.Y.",
"Y.Y.Y.Y.w w w w w w w w y h 5.y w w w w w w w w w w w w Y.Y.Y.Y.",
"Y.Y.Y.Y.Y.w w w w w w w w w w w w w w w w w w w w w w Y.Y.Y.Y.Y.",
"Y.Y.Y.Y.Y.Y.w w w w w w w w w w w w w w w w w w w w Y.Y.Y.Y.Y.Y.",
"Y.Y.Y.Y.Y.Y.Y.w w w w w w w w w w w w w w w w w w Y.Y.Y.Y.Y.Y.Y.",
"Y.Y.Y.Y.Y.Y.Y.Y.Y.w w w w w w w w w w w w w w Y.Y.Y.Y.Y.Y.Y.Y.Y.",
"Y.Y.Y.Y.Y.Y.Y.Y.Y.Y.Y.Y.w w w w w w w w Y.Y.Y.Y.Y.Y.Y.Y.Y.Y.Y.Y."
};
