<?xml version="1.0" encoding="utf-8"?>
<!-- Generator: Adobe Illustrator 19.2.1, SVG Export Plug-In . SVG Version: 6.00 Build 0)  -->
<svg version="1.1"
	 id="svg2" inkscape:version="0.48.2 r9819" sodipodi:docname="fujicoin-logo-noshadow.svg" xmlns:cc="http://creativecommons.org/ns#" xmlns:dc="http://purl.org/dc/elements/1.1/" xmlns:inkscape="http://www.inkscape.org/namespaces/inkscape" xmlns:rdf="http://www.w3.org/1999/02/22-rdf-syntax-ns#" xmlns:sodipodi="http://sodipodi.sourceforge.net/DTD/sodipodi-0.dtd" xmlns:svg="http://www.w3.org/2000/svg"
	 xmlns="http://www.w3.org/2000/svg" xmlns:xlink="http://www.w3.org/1999/xlink" x="0px" y="0px" viewBox="0 0 1024 1024"
	 style="enable-background:new 0 0 1024 1024;" xml:space="preserve">
<style type="text/css">
	.st0{fill:#B4CE5C;}
	.st1{fill:#44AEEA;}
	.st2{fill:#FFFFFF;}
	.st3{opacity:0.3;fill:#FFFFFF;enable-background:new    ;}
</style>
<g>
	<g id="レイヤー_1_1_">
		<path class="st0" d="M664.4,370.3c-62-107.1-107.5-223-135.1-343.7c-33.4-3.7-67.1-3.7-100.5,0C373.1,269.1,246,489.3,63.8,658.7
			c13.5,30.7,30.3,59.9,50.2,86.9c237.9-73.1,492.2-73.1,730.1,0c19.9-27,36.8-56.1,50.2-86.9C803.8,574.6,726.2,477.4,664.4,370.3z
			"/>
		<path class="st1" d="M114,746.1c148.5,201.6,432.3,244.7,633.9,96.2c36.7-27,69.2-59.5,96.2-96.2C606.3,673,351.9,673,114,746.1z"
			/>
		<path class="st1" d="M529.3,26.8c55.8,242.4,183,462.5,365.2,631.8C994.7,429.2,889.8,162,660.2,61.9
			C618.6,43.7,574.5,31.9,529.3,26.8z"/>
		<path class="st1" d="M293.7,370.3c62-107.1,107.5-223,135.1-343.7C180,54.5,0.9,278.8,28.7,527.7c5.1,45.2,16.9,89.4,35.1,131
			C154.4,574.6,231.9,477.4,293.7,370.3z"/>
		<path class="st2" d="M557.8,298.7l19.4-84.3l-56-12.9l-19.4,84.3l-33.6-8l19.4-84.3l-56-12.9L412.2,265l-84.3-19.4l-12,52
			l36.3,8.5c11.9,1.3,20.6,12.1,19.2,24c-0.2,1.6-0.5,3.3-1.1,4.8L315,574.9c-1.4,11.9-12.2,20.5-24.1,19.1c-1.5-0.2-2.9-0.5-4.3-1
			l-36.3-8.3l-12,51.9L322,656l-19.4,84.3l56,12.9l19.4-84.3l33.6,7.8L392.2,761l56,12.9l19.4-84.3l0,0l12-51.9l-36.3-8.5
			c-11.9-1.3-20.6-12.1-19.2-24c0.2-1.6,0.5-3.3,1.1-4.8l22.9-99l18.1,4.2c33.6,7.8,43,26.1,37.4,50.8l-5.3,23l49,11.2l41.2-177.9
			l-49-11.2l-5.3,23c-5.8,24.7-22.3,36.3-55.9,29.4l-18.1-4.2L486.2,337l58.4,13.4c75.4,18.1,105.4,38.1,85.8,123l54.4,12.7
			l34.6-149.6L557.8,298.7z"/>
		<path class="st3" d="M252.4,84.7c-140.3,81-226.7,230.7-226.7,392.6c216.9,125.2,494.1,50.9,619.3-166
			c39.8-68.9,60.7-147.1,60.7-226.7C565.5,3.7,392.7,3.7,252.4,84.7z"/>
	</g>
</g>
</svg>
